<svg id="Capa_1" enable-background="new 0 0 512 512" height="512" viewBox="0 0 512 512" width="512" xmlns="http://www.w3.org/2000/svg"><g><g id="Page-1_9_"><g id="_x30_10---Chat-Bot-Head"><path id="Shape_72_" d="m477.867 230.395h-8.533v-34.133c-.038-32.974-26.759-59.696-59.733-59.733h-145.068v-52.054c21.461-4.381 36.119-24.3 33.917-46.093-2.201-21.793-20.546-38.378-42.45-38.378s-40.249 16.586-42.451 38.378c-2.202 21.793 12.456 41.712 33.917 46.093v52.053h-145.066c-32.974.038-59.696 26.759-59.733 59.733v34.133h-8.533c-18.852.001-34.134 15.283-34.134 34.134v51.2c0 18.851 15.282 34.133 34.133 34.133h8.533v34.133c.038 32.974 26.759 59.696 59.733 59.733v59.733c0 3.148 1.732 6.04 4.508 7.525s6.143 1.321 8.762-.426l98.133-65.408c1.391-.924 3.023-1.42 4.693-1.425h191.105c32.974-.038 59.696-26.759 59.733-59.733v-34.133h8.533c18.851 0 34.133-15.282 34.133-34.133v-51.2c.001-18.85-15.281-34.132-34.132-34.132zm-247.467-187.733c0-14.138 11.462-25.6 25.6-25.6 14.139 0 25.6 11.462 25.6 25.6s-11.461 25.6-25.6 25.6c-14.138 0-25.6-11.462-25.6-25.6zm-196.267 290.133c-9.426 0-17.067-7.641-17.067-17.067v-51.2c0-9.426 7.641-17.067 17.067-17.067h8.533v85.333h-8.533zm418.134 51.2c-.028 23.552-19.114 42.638-42.667 42.667h-191.104c-5.052-.018-9.994 1.467-14.199 4.267l-84.83 56.585v-43.785c0-9.426-7.641-17.067-17.067-17.067-23.552-.028-42.638-19.114-42.667-42.667v-187.733c.028-23.552 19.114-42.638 42.667-42.667h307.2c23.552.028 42.638 19.114 42.667 42.667zm42.666-68.267c0 9.426-7.641 17.067-17.067 17.067h-8.533v-85.333h8.533c9.426 0 17.067 7.641 17.067 17.067z"/><path id="Shape_71_" d="m153.6 221.862c-23.564 0-42.667 19.103-42.667 42.667s19.103 42.667 42.667 42.667 42.667-19.103 42.667-42.667c-.029-23.553-19.115-42.639-42.667-42.667zm0 68.266c-14.138 0-25.6-11.462-25.6-25.6s11.462-25.6 25.6-25.6 25.6 11.462 25.6 25.6-11.462 25.6-25.6 25.6z"/><path id="Shape_70_" d="m358.4 221.862c-23.564 0-42.667 19.103-42.667 42.667s19.103 42.667 42.667 42.667 42.667-19.103 42.667-42.667c-.029-23.553-19.115-42.639-42.667-42.667zm0 68.266c-14.138 0-25.6-11.462-25.6-25.6s11.462-25.6 25.6-25.6 25.6 11.462 25.6 25.6-11.462 25.6-25.6 25.6z"/><path id="Shape_69_" d="m303.275 325.704c-3.938-2.509-9.158-1.423-11.767 2.449-.358.538-9.216 13.175-35.507 13.175-26.061 0-34.987-12.425-35.499-13.158-2.567-3.876-7.765-4.984-11.689-2.491-3.925 2.492-5.132 7.668-2.715 11.639.538.853 13.594 21.077 49.903 21.077s49.365-20.215 49.903-21.077c2.449-3.939 1.278-9.115-2.629-11.614z"/></g></g></g></svg>