<?xml version="1.0" standalone="no"?>
<!DOCTYPE svg PUBLIC "-//W3C//DTD SVG 20010904//EN"
 "http://www.w3.org/TR/2001/REC-SVG-20010904/DTD/svg10.dtd">
<svg version="1.0" xmlns="http://www.w3.org/2000/svg"
 width="159.000000pt" height="157.000000pt" viewBox="0 0 159.000000 157.000000"
 preserveAspectRatio="xMidYMid meet">

<g transform="translate(0.000000,157.000000) scale(0.100000,-0.100000)"
fill="#000000" stroke="none">
<path d="M692 1334 c-12 -8 -29 -29 -38 -45 -14 -28 -14 -33 6 -73 l21 -43
-32 -87 -31 -86 -64 0 c-50 0 -74 -6 -111 -26 -98 -54 -134 -109 -141 -220 -5
-77 11 -121 70 -196 48 -61 88 -68 393 -68 l261 0 60 63 c76 77 89 100 98 160
22 146 -104 287 -255 287 l-58 0 -21 57 c-31 83 -34 106 -20 161 11 48 10 52
-16 91 -23 36 -32 41 -63 41 -20 0 -47 -7 -59 -16z m346 -442 c96 -81 108
-152 41 -245 -22 -32 -53 -64 -68 -72 -30 -15 -245 -21 -445 -11 -95 4 -100 6
-133 38 -43 41 -73 98 -73 138 0 67 53 140 134 186 13 8 96 11 256 10 l236 -1
52 -43z"/>
<path d="M897 820 c-35 -27 -45 -81 -23 -115 37 -56 104 -58 132 -4 42 82 -41
172 -109 119z"/>
<path d="M485 804 c-33 -36 -31 -72 6 -117 43 -52 79 -51 115 3 20 30 25 46
19 67 -17 72 -93 97 -140 47z"/>
</g>
</svg>
